<?xml version="1.0" standalone="no"?>
<!DOCTYPE svg PUBLIC "-//W3C//DTD SVG 20010904//EN"
 "http://www.w3.org/TR/2001/REC-SVG-20010904/DTD/svg10.dtd">
<svg version="1.0" xmlns="http://www.w3.org/2000/svg"
 width="400.000000pt" height="400.000000pt" viewBox="0 0 400.000000 400.000000"
 preserveAspectRatio="xMidYMid meet">
<metadata>
Created by potrace 1.14, written by Peter Selinger 2001-2017
</metadata>
<g transform="translate(0.000000,400.000000) scale(0.100000,-0.100000)"
fill="#000000" stroke="none">
<path d="M0 2000 l0 -1490 2000 0 2000 0 0 1490 0 1490 -2000 0 -2000 0 0
-1490z m3990 0 l0 -1480 -1990 0 -1990 0 0 1480 0 1480 1990 0 1990 0 0 -1480z"/>
<path d="M2536 3094 c-72 -26 -148 -93 -185 -164 -38 -71 -41 -134 -41 -799 0
-662 4 -741 40 -810 27 -52 107 -126 165 -153 48 -22 63 -23 323 -26 l274 -4
-42 -20 c-162 -81 -156 -344 10 -433 75 -40 178 -25 241 35 44 41 48 55 20 70
-16 8 -25 4 -53 -24 -119 -119 -289 -18 -276 163 7 100 70 161 165 161 51 0
93 -21 119 -59 12 -17 19 -19 35 -11 10 6 19 16 19 23 0 18 -59 74 -89 85 -21
7 -14 10 39 15 81 9 134 35 195 95 112 110 136 288 56 414 l-29 45 29 43 c37
55 49 99 49 182 0 73 -23 148 -59 194 -18 23 -19 29 -7 43 7 9 24 36 37 61 20
39 24 59 24 145 0 123 -20 170 -108 251 -81 75 -117 84 -339 84 l-178 0 0 58
c-1 202 -144 353 -333 351 -34 0 -80 -7 -101 -15z m192 -145 c29 -15 54 -37
73 -67 28 -45 29 -49 29 -184 l0 -138 245 0 c226 0 249 -2 285 -20 61 -31 110
-111 110 -179 -1 -40 -36 -109 -86 -167 l-44 -53 45 -50 c107 -122 109 -208 8
-328 l-54 -63 47 -58 c26 -31 53 -71 60 -89 28 -65 11 -158 -39 -211 -52 -57
-54 -57 -429 -60 -240 -2 -360 0 -389 8 -55 15 -113 72 -128 125 -7 27 -11
254 -11 720 0 647 1 682 19 722 46 101 158 141 259 92z"/>
<path d="M889 3037 c-57 -30 -113 -110 -142 -202 -22 -69 -22 -78 -22 -710 0
-582 2 -646 18 -705 24 -90 74 -168 132 -207 l47 -33 217 0 216 0 175 -276
c96 -151 179 -284 184 -294 5 -11 15 -20 23 -20 12 0 14 45 11 295 l-3 295
164 0 c158 0 165 1 212 27 84 45 142 157 160 309 6 50 9 313 7 666 -4 567 -4
585 -26 648 -23 72 -72 155 -105 183 -58 47 -55 47 -657 47 l-567 0 -44 -23z
m965 -585 c-2 -35 -73 -155 -430 -719 -17 -27 -45 -30 -66 -5 -9 9 -59 87
-112 172 -96 155 -109 188 -86 231 6 10 21 19 34 19 19 0 38 -25 107 -134 46
-74 87 -132 91 -128 3 4 92 144 198 312 105 168 199 311 208 318 25 19 57 -18
56 -66z"/>
<path d="M1897 1141 c-75 -15 -117 -64 -117 -139 0 -59 29 -85 121 -112 124
-36 143 -45 159 -73 13 -24 13 -30 0 -54 -34 -61 -164 -64 -241 -7 l-33 24
-12 -22 c-16 -29 -13 -33 49 -65 43 -22 65 -27 127 -27 119 0 172 38 173 125
1 47 -2 55 -34 84 -27 24 -56 37 -124 53 -48 12 -97 29 -107 38 -26 24 -23 76
5 102 32 30 127 31 175 2 36 -22 62 -15 62 17 0 33 -132 68 -203 54z"/>
<path d="M2350 905 l0 -235 114 0 c123 0 161 10 209 54 73 68 91 205 40 305
-23 45 -37 60 -82 83 -49 26 -62 28 -167 28 l-114 0 0 -235z m268 157 c49 -36
66 -76 67 -157 0 -78 -19 -122 -68 -159 -23 -17 -46 -22 -118 -24 l-89 -4 0
187 0 187 88 -4 c72 -2 93 -7 120 -26z"/>
<path d="M3645 948 c-44 -106 -88 -212 -98 -236 l-17 -43 31 3 c27 3 33 10 58
68 l27 65 104 0 104 0 26 -65 c24 -59 29 -65 58 -68 l31 -3 -55 133 c-31 73
-74 179 -97 235 -38 92 -45 103 -67 103 -23 0 -31 -15 -105 -192z m142 29 c18
-45 35 -90 39 -99 6 -16 -2 -18 -79 -18 l-85 0 42 100 c22 55 43 100 46 100 3
0 19 -37 37 -83z"/>
</g>
</svg>
